<?xml version="1.0" encoding="UTF-8" standalone="no"?>
<!-- Created with Inkscape (http://www.inkscape.org/) -->

<svg
   width="256mm"
   height="256mm"
   viewBox="0 0 256 256"
   version="1.1"
   id="svg5"
   inkscape:version="1.2.1 (9c6d41e410, 2022-07-14)"
   sodipodi:docname="logo.svg"
   xmlns:inkscape="http://www.inkscape.org/namespaces/inkscape"
   xmlns:sodipodi="http://sodipodi.sourceforge.net/DTD/sodipodi-0.dtd"
   xmlns="http://www.w3.org/2000/svg"
   xmlns:svg="http://www.w3.org/2000/svg">
  <sodipodi:namedview
     id="namedview7"
     pagecolor="#505050"
     bordercolor="#eeeeee"
     borderopacity="1"
     inkscape:showpageshadow="0"
     inkscape:pageopacity="0"
     inkscape:pagecheckerboard="0"
     inkscape:deskcolor="#505050"
     inkscape:document-units="mm"
     showgrid="false"
     inkscape:zoom="0.77593294"
     inkscape:cx="558.6823"
     inkscape:cy="518.08601"
     inkscape:window-width="1864"
     inkscape:window-height="1051"
     inkscape:window-x="0"
     inkscape:window-y="0"
     inkscape:window-maximized="1"
     inkscape:current-layer="layer1" />
  <defs
     id="defs2">
    <rect
       x="637.94173"
       y="171.40656"
       width="42.529448"
       height="83.770126"
       id="rect2814" />
    <rect
       x="238.42267"
       y="172.69534"
       width="623.76525"
       height="612.1663"
       id="rect2758" />
    <filter
       inkscape:collect="always"
       style="color-interpolation-filters:sRGB"
       id="filter1764"
       x="-0.01632149"
       y="-0.016209687"
       width="1.0326433"
       height="1.0324197">
      <feGaussianBlur
         inkscape:collect="always"
         stdDeviation="0.012200021"
         id="feGaussianBlur1766" />
    </filter>
    <rect
       x="238.42267"
       y="172.69534"
       width="902.13984"
       height="734.59958"
       id="rect2758-3" />
  </defs>
  <g
     inkscape:label="Layer 1"
     inkscape:groupmode="layer"
     id="layer1">
    <path
       style="fill:#800000;fill-opacity:0;stroke-width:0.264583"
       id="path1151"
       sodipodi:type="arc"
       sodipodi:cx="126.6768"
       sodipodi:cy="126.16533"
       sodipodi:rx="126.33582"
       sodipodi:ry="125.82433"
       sodipodi:start="3.5740834"
       sodipodi:end="0.97033712"
       sodipodi:arc-type="slice"
       d="M 11.9734,73.428135 A 126.33582,125.82433 0 0 1 137.80192,0.82980038 126.33582,125.82433 0 0 1 248.89085,94.287627 126.33582,125.82433 0 0 1 198.05925,229.98 L 126.6768,126.16533 Z" />
    <path
       style="fill:#800000;fill-opacity:0;stroke-width:0.264583"
       id="path1153"
       sodipodi:type="arc"
       sodipodi:cx="97.863373"
       sodipodi:cy="98.374855"
       sodipodi:rx="94.794487"
       sodipodi:ry="92.91906"
       sodipodi:start="3.5740834"
       sodipodi:end="0.97033712"
       sodipodi:arc-type="slice"
       d="M 11.797125,59.429363 A 94.794487,92.91906 0 0 1 106.21096,5.8167689 94.794487,92.91906 0 0 1 189.56514,74.833732 94.794487,92.91906 0 0 1 151.42429,175.04016 L 97.863373,98.374855 Z" />
    <path
       style="fill:#800000;fill-opacity:0;stroke-width:0.264583"
       id="path1155"
       sodipodi:type="arc"
       sodipodi:cx="54.898968"
       sodipodi:cy="37.679104"
       sodipodi:rx="55.580944"
       sodipodi:ry="37.679104"
       sodipodi:start="3.5740834"
       sodipodi:end="1.5046161"
       sodipodi:arc-type="slice"
       d="M 4.4356607,21.886529 A 55.580944,37.679104 0 0 1 69.524088,1.3278167 55.580944,37.679104 0 0 1 110.202,41.442366 55.580944,37.679104 0 0 1 58.574643,75.275724 l -3.675675,-37.59662 z" />
    <path
       style="fill:#800000;fill-opacity:0;stroke-width:0.264583"
       id="path1157"
       sodipodi:type="arc"
       sodipodi:cx="33.928242"
       sodipodi:cy="61.548222"
       sodipodi:rx="29.154419"
       sodipodi:ry="24.380598"
       sodipodi:start="3.5740834"
       sodipodi:end="1.5046161"
       sodipodi:arc-type="slice"
       d="M 7.4582272,51.329496 A 29.154419,24.380598 0 0 1 41.5997,38.026799 29.154419,24.380598 0 0 1 62.936884,63.983274 29.154419,24.380598 0 0 1 35.85628,85.875448 L 33.928242,61.548222 Z" />
    <path
       style="fill:#800000;fill-opacity:0;stroke:#c95a1b;stroke-width:8;stroke-dasharray:none;stroke-opacity:1;filter:url(#filter1764)"
       id="path1159"
       sodipodi:type="arc"
       sodipodi:cx="128.21126"
       sodipodi:cy="128.04076"
       sodipodi:rx="123.43743"
       sodipodi:ry="124.28989"
       sodipodi:start="3.1331549"
       sodipodi:end="3.1272095"
       sodipodi:arc-type="arc"
       d="M 4.7782207,129.08947 A 123.43743,124.28989 0 0 1 126.98627,3.7569902 123.43743,124.28989 0 0 1 251.64065,126.62258 123.43743,124.28989 0 0 1 129.80316,252.32031 123.43743,124.28989 0 0 1 4.7865944,129.82838"
       sodipodi:open="true"
       transform="matrix(0.99475772,0,0,0.98793547,0.67211677,1.7152442)" />
    <text
       xml:space="preserve"
       transform="matrix(0.26458333,0,0,0.26458333,-17.731343,-18.754306)"
       id="text2756"
       style="font-style:normal;font-weight:normal;font-size:533.333px;line-height:125%;font-family:sans-serif;letter-spacing:0px;word-spacing:0px;white-space:pre;shape-inside:url(#rect2758);display:inline;fill:#c95a1b;fill-opacity:1;stroke:none;stroke-width:1px;stroke-linecap:butt;stroke-linejoin:miter;stroke-opacity:1"><tspan
         x="238.42188"
         y="663.10597"
         id="tspan1400"><tspan
           style="font-family:'Luxi Sans';-inkscape-font-specification:'Luxi Sans';stroke:#e0001d;stroke-opacity:0.994521"
           id="tspan1398">C</tspan></tspan></text>
    <text
       xml:space="preserve"
       transform="matrix(0.26458333,0,0,0.26458333,51.040476,24.552075)"
       id="text2756-6"
       style="font-style:normal;font-weight:normal;font-size:533.333px;line-height:125%;font-family:sans-serif;letter-spacing:0px;word-spacing:0px;white-space:pre;shape-inside:url(#rect2758-3);display:inline;fill:#c95a1b;fill-opacity:1;stroke:none;stroke-width:1px;stroke-linecap:butt;stroke-linejoin:miter;stroke-opacity:1"><tspan
         x="238.42188"
         y="663.10597"
         id="tspan1404"><tspan
           style="font-family:'Luxi Sans';-inkscape-font-specification:'Luxi Sans';stroke:#e0001d;stroke-opacity:0.994521"
           id="tspan1402">H</tspan></tspan></text>
    <text
       xml:space="preserve"
       transform="scale(0.26458333)"
       id="text2812"
       style="font-style:normal;font-weight:normal;font-size:40px;line-height:125%;font-family:sans-serif;letter-spacing:0px;word-spacing:0px;white-space:pre;shape-inside:url(#rect2814);display:inline;fill:#000000;fill-opacity:1;stroke:none;stroke-width:1px;stroke-linecap:butt;stroke-linejoin:miter;stroke-opacity:1" />
  </g>
</svg>
